# xmcd
#
# Track frame offsets:
#	150
#	43424
#	92679
#	132716
#	161860
#	210067
#
# Disc length: 3299 seconds
#
# Revision: 1
# Processed by: cddbd v1.5.2PL0 Copyright (c) Steve Scherf et al.
# Submitted via: audiograbber 1.83.01
#
DISCID=520ce106
DTITLE=Grateful Dead - 77-10-09 McNichols Sports Arena, Denver CO
DYEAR=1900
DGENRE=
TTITLE0=Estimated Prophet
TTITLE1=He's Gone
TTITLE2=Truckin'
TTITLE3=Drums
TTITLE4=Terrapin Station
TTITLE5=Around and Around
EXTD=
EXTT0=
EXTT1=
EXTT2=
EXTT3=
EXTT4=
EXTT5=
PLAYORDER=
